<svg width="14" height="18" viewBox="0 0 14 18" fill="none" xmlns="http://www.w3.org/2000/svg">
<path id="Vector" fill-rule="evenodd" clip-rule="evenodd" d="M2.34545 7.66664C1.56324 7.66664 1.39999 7.82016 1.39999 8.55552V9.88888C1.39999 10.6243 1.56324 10.7778 2.34545 10.7778H4.23635V16.1111C4.23635 16.8465 4.3996 17 5.18181 17H7.07271C7.85495 17 8.01815 16.8465 8.01815 16.1111V10.7778H10.1414C10.7346 10.7778 10.8875 10.6694 11.0505 10.1331L11.4557 8.79976C11.7348 7.88112 11.5628 7.66664 10.5466 7.66664H8.01815V5.44445C8.01815 4.95353 8.44143 4.55555 8.96359 4.55555H11.6546C12.4367 4.55555 12.6 4.40207 12.6 3.66666V1.88889C12.6 1.15348 12.4367 1 11.6546 1H8.96359C6.35279 1 4.23635 2.98985 4.23635 5.44445V7.66664H2.34545Z" stroke="white" stroke-width="1.5" stroke-linejoin="round"/>
</svg>
