<svg width="16" height="16" viewBox="0 0 16 16" fill="none" xmlns="http://www.w3.org/2000/svg">
<g id="Frame">
<path id="Vector" d="M1.33333 4L5.94201 6.61131C7.64106 7.574 8.35893 7.574 10.058 6.61131L14.6667 4" stroke="white" stroke-width="1.5" stroke-linejoin="round"/>
<path id="Vector_2" d="M1.34384 8.98365C1.38742 11.0274 1.40921 12.0492 2.1633 12.8062C2.91738 13.5631 3.96688 13.5895 6.06588 13.6422C7.35953 13.6747 8.64046 13.6747 9.93413 13.6422C12.0331 13.5895 13.0826 13.5631 13.8367 12.8062C14.5908 12.0492 14.6126 11.0274 14.6561 8.98365C14.6702 8.32652 14.6702 7.67332 14.6561 7.01619C14.6126 4.97249 14.5908 3.95065 13.8367 3.19369C13.0826 2.43674 12.0331 2.41037 9.93413 2.35763C8.64046 2.32513 7.35953 2.32513 6.06587 2.35763C3.96688 2.41036 2.91738 2.43673 2.16329 3.19369C1.40921 3.95064 1.38742 4.97249 1.34383 7.01619C1.32982 7.67332 1.32983 8.32652 1.34384 8.98365Z" stroke="white" stroke-width="1.5" stroke-linejoin="round"/>
</g>
</svg>
