<svg width="16" height="16" viewBox="0 0 16 16" fill="none" xmlns="http://www.w3.org/2000/svg">
<g id="Frame" clip-path="url(#clip0_1_570)">
<path id="Vector" d="M1.66667 8.00008C1.66667 5.01452 1.66667 3.52174 2.59417 2.59424C3.52167 1.66675 5.01445 1.66675 8.00001 1.66675C10.9855 1.66675 12.4783 1.66675 13.4059 2.59424C14.3333 3.52174 14.3333 5.01452 14.3333 8.00008C14.3333 10.9856 14.3333 12.4784 13.4059 13.4059C12.4783 14.3334 10.9855 14.3334 8.00001 14.3334C5.01445 14.3334 3.52167 14.3334 2.59417 13.4059C1.66667 12.4784 1.66667 10.9856 1.66667 8.00008Z" stroke="white" stroke-width="1.5" stroke-linejoin="round"/>
<path id="Vector_2" d="M11 8C11 9.65687 9.65687 11 8 11C6.34315 11 5 9.65687 5 8C5 6.34315 6.34315 5 8 5C9.65687 5 11 6.34315 11 8Z" stroke="white" stroke-width="1.5"/>
<path id="Vector_3" d="M11.6719 4.33325H11.6659" stroke="white" stroke-width="2" stroke-linecap="round" stroke-linejoin="round"/>
</g>
<defs>
<clipPath id="clip0_1_570">
<rect width="16" height="16" fill="white"/>
</clipPath>
</defs>
</svg>
