<svg width="16" height="16" viewBox="0 0 16 16" fill="none" xmlns="http://www.w3.org/2000/svg">
<path id="Vector" d="M5.78977 3.10951L5.47659 2.40486C5.27181 1.94413 5.16943 1.71375 5.0163 1.53745C4.8244 1.31651 4.57426 1.15395 4.29442 1.06833C4.07113 1 3.81903 1 3.31483 1C2.57726 1 2.20848 1 1.8989 1.14178C1.53423 1.30879 1.2049 1.67144 1.07368 2.05047C0.962283 2.37222 0.994196 2.70289 1.058 3.36421C1.73726 10.4035 5.59654 14.2627 12.6358 14.942C13.2971 15.0058 13.6278 15.0377 13.9495 14.9263C14.3286 14.7951 14.6912 14.4657 14.8583 14.1011C15 13.7915 15 13.4227 15 12.6852C15 12.1809 15 11.9289 14.9317 11.7056C14.8461 11.4257 14.6835 11.1756 14.4626 10.9837C14.2863 10.8306 14.0559 10.7282 13.5952 10.5234L12.8905 10.2102C12.3916 9.98846 12.142 9.87762 11.8886 9.85351C11.6459 9.83041 11.4013 9.86448 11.1742 9.95291C10.9369 10.0453 10.7272 10.2201 10.3077 10.5696C9.89014 10.9176 9.68139 11.0916 9.42627 11.1848C9.2001 11.2674 8.90112 11.298 8.66296 11.2628C8.39424 11.2233 8.18852 11.1134 7.77699 10.8934C6.49677 10.2093 5.79075 9.50328 5.10657 8.22298C4.88667 7.81154 4.77672 7.60574 4.73713 7.33709C4.70203 7.09886 4.73262 6.79988 4.81524 6.57378C4.90843 6.31866 5.08242 6.10989 5.43038 5.69233C5.77994 5.27286 5.95472 5.06312 6.04713 4.82582C6.13556 4.59873 6.1696 4.35409 6.14653 4.11148C6.12241 3.85796 6.01153 3.60848 5.78977 3.10951Z" stroke="white" stroke-width="2" stroke-linecap="round"/>
</svg>
